<?xml version="1.0" encoding="UTF-8"?>
<svg id="Layer_2" data-name="Layer 2" xmlns="http://www.w3.org/2000/svg" viewBox="0 0 234.34 192.97">
  <defs>
    <style>
      .cls-1 {
        fill: #fff;
      }
    </style>
  </defs>
  <g id="Layer_1-2" data-name="Layer 1">
    <g>
      <path class="cls-1" d="M10.17,192.24c-1.71-.98-3.66-1.95-5.62-2.69l-3.17-3.66c-.98-.98-1.22-2.2-.98-3.66-.49-.98-.49-2.69-.24-4.15-.24-1.95,0-4.4.73-6.35,0-.73.98-2.69,1.22-3.42.49-1.46,1.71-3.42,2.93-5.13,2.69-4.15,5.37-5.62,8.3-8.79,5.37-6.1,11.23-11.23,17.83-15.63,1.46-1.22,3.17-2.2,4.4-3.17,4.4-3.66,9.04-6.84,13.67-9.52l10.01-6.35c1.22-.73,1.95-1.95,2.69-2.93l2.93-6.59c1.95-3.66,3.42-7.81,5.62-11.23.98-3.42,2.93-6.35,4.64-9.28,1.46-2.44,2.93-4.88,3.66-7.81.24-.73,11.72-28.33,14.41-31.74,1.71-2.93,2.44-5.62,4.15-8.55.73-1.46,2.44-4.15,3.17-5.86.73-2.2,1.71-4.15,2.93-6.1.49-.73,1.71-1.22,2.69-1.46.98-.24,1.22-.24,2.2.49,1.22.73,2.93,1.71,3.66,2.69.98.98.98,1.95.73,2.93,0,.49,0,1.22-.49,1.46-1.71,2.93-3.17,7.33-4.88,10.26-2.2,3.91-4.4,8.3-6.84,12.45-2.93,4.88-5.37,10.26-7.57,15.63-.49.98-.73,1.95-1.22,2.93-3.42,5.86-5.86,12.21-9.28,18.31-1.95,3.42-5.13,9.77-6.35,13.67-.24.49-.24.98.24,1.22.24.24.73.24.73,0,1.22-.49,3.66-2.2,6.84-4.4,2.93-2.2,6.84-4.15,9.77-6.35.98-.49,1.95-.98,2.69-1.95,2.2-2.2,4.39-3.66,6.84-5.86,2.2-1.95,4.15-3.66,6.35-5.37,1.95-1.95,4.4-4.4,5.86-6.59,3.66-4.64,1.95-2.2,5.13-7.08,1.22-1.95,2.69-3.42,3.66-5.62.98-1.71,2.44-3.42,3.42-5.13.24-.98.98-1.22,1.46-1.95.49-.49,1.95-.98,2.69-.73.98-.24,1.47,0,2.44.24.73,0,2.93,1.71,2.44,3.17,0,2.69-1.22,4.88-1.71,5.86-.98,2.2-2.2,4.15-2.93,5.62-1.95,3.91-2.2,4.4-3.91,6.35-1.47,2.44-2.69,3.42-4.88,6.84-4.64,5.37-6.35,7.08-10.01,10.5-2.44,1.95-4.64,4.15-7.33,5.62-.49.24-.98.73-1.22.98-5.86,5.37-13.92,9.28-20.51,13.43l-12.21,7.33c-2.2,1.22-3.91,2.93-5.13,5.13-2.93,5.37-6.1,10.99-9.28,16.36-.98,3.17-3.17,5.37-4.64,8.3-.98,2.69-2.69,5.13-4.15,7.57-3.66,6.59-8.3,12.21-13.67,17.58-1.95,1.95-3.91,4.15-6.1,6.1-2.44,1.95-5.13,3.42-7.81,5.13-1.95.49-3.66,1.22-5.62,1.71l-5.37-.73ZM24.82,177.1c1.46-1.47,2.69-3.17,4.15-4.88,4.15-3.66,7.08-8.3,9.77-12.7,3.66-6.59,10.99-18.56,14.41-24.91l-4.15,2.44c-1.47.73-2.44,1.95-3.91,3.17-6.84,5.62-11.72,7.33-15.87,11.97-.73.49-6.35,6.1-7.08,7.08-2.2,3.42-4.88,6.84-7.08,10.26-1.95,2.44-2.69,4.88-3.17,7.57-.49,1.46,0,2.93.98,4.15l1.46.98c.73.98,1.71.98,2.2.73,3.42-1.47,6.1-3.42,8.3-5.86ZM118.1,19.6c-.24,0-.49-.73-1.22-1.22-.98-1.71-1.95-2.93-2.93-4.64l-.73-1.95c.49-2.93.49-5.86,1.46-8.55.49-.73.49-1.22,2.69-3.17,2.2,0,4.39-.25,6.35.24,4.15,1.46,5.86,4.88,7.33,8.55-.24.98-.24,1.46-.24,2.2-.24,1.22-.73,2.93-1.46,3.91-.73,2.44-2.2,4.4-4.64,6.11-.73.49-1.22.73-1.46.73-2.69,0-3.91-.73-5.13-2.2Z"/>
      <path class="cls-1" d="M140.57,111.41c-2.44,1.46-1.71,2.44-7.33,4.4-1.22.24-3.42,1.22-4.4,1.22-1.71.24-4.15.73-5.86-.49-.73-.49-1.46-1.71-1.95-2.2-.73-.49-1.46-.98-1.71-1.46-.73-.73-.98-1.71-.98-2.69-.49-2.44-.24-4.64,1.22-6.84,1.22-1.71,1.71-2.2,2.93-3.66,2.2-1.47,6.59-3.17,10.01-3.17,1.71,0,6.35-.24,7.57-1.22.73-1.22,3.17-3.42,4.4-4.64,1.71-1.95,3.91-3.42,5.37-5.37,1.71-1.22,3.17-2.44,5.13-4.4,1.22-1.22,2.93-2.69,4.15-4.4,2.44-2.44,4.64-4.4,7.08-6.35,4.15-3.17,3.42-3.42,6.84-6.1,3.91-3.42,6.35-6.1,8.79-8.3,1.95-1.95,3.17-3.42,4.64-5.13.49-.49,4.15-3.17,3.66-3.66-4.4-1.22-10.5-2.2-16.6-3.17-17.09-2.69-21.98,1.71-27.84,10.01-1.46,2.2-11.48,16.12-12.94,18.8-2.44,3.17-7.57,6.59-9.77,4.15l-1.22-2.44c-.24-1.95.98-4.64,2.2-6.59,2.2-3.42,6.84-9.52,10.01-14.16,6.35-9.77,12.21-17.58,20.02-21.73l10.99-2.2c11.96,0,26.62,6.1,31.26,5.86,1.95-.24,2.44-.24,4.4-.73,4.4-3.42,6.59-4.64,10.26-5.86,2.93-1.22,5.37-1.22,8.55-.49,1.22,0,4.64,1.46,5.37,2.2.49.73.98,1.71,1.71,2.44.73,1.71.49,3.42,0,5.37-.49,2.44-1.71,3.91-3.42,5.13-1.71,1.71-3.42,2.2-5.13,2.93-3.66.49-4.15,0-8.3,1.22-.98.49-1.46.24-1.95.73-3.42,1.22-7.33,5.86-10.26,8.06-2.2,1.95-4.15,3.66-6.1,5.86-2.2,1.95-.73.73-3.17,2.69-2.2,2.2-4.88,3.17-7.08,7.08-3.42,2.93-2.2,2.44-6.1,4.88-2.2,1.71-3.91,3.42-5.62,5.37-1.71,2.44-3.91,4.64-6.35,6.11-2.93,2.44-5.13,4.88-7.57,7.33-.49.73-5.86,4.88-6.1,5.62l.73.73c3.91,1.95,13.92,6.1,18.31,6.1,5.37,0,8.55-.49,13.67-1.95l3.91-2.2c1.71-.98,6.35-3.66,8.06-5.13,3.91-2.44,6.35-4.4,9.04-7.08.73-.98,1.71-1.71,2.44-2.69,1.95-1.47,2.69-3.17,4.15-4.88.73-.73,2.44-3.17,2.93-3.66,4.64-5.37,3.17-4.64,6.84-10.01,1.71-1.71,1.71-3.91,3.17-5.37,1.46-1.71,2.44-3.66,3.42-5.13.73-.98,2.2-1.22,2.93-1.22.24,0,1.46-.24,1.71,0,.49.24,1.46,0,2.44.73s1.22,1.22,1.22,3.66c0,.73-2.44,6.59-3.17,7.81-2.93,4.4-1.47,4.4-4.88,8.06-2.2,4.64-3.66,6.35-7.81,10.99-.98,1.71-1.71,3.17-3.66,4.88-.73,1.71-2.69,2.93-3.42,3.91-1.22.73-2.2,1.22-2.2,1.71-2.93,2.44-4.39,4.15-6.59,5.62-2.93,2.2-5.86,4.4-9.04,6.35-1.22.98-2.2,1.71-3.91,2.2-.73.24-1.47.73-1.95,1.22-.98.73-2.2,1.22-3.66,1.46-1.95.98-6.35,1.71-10.74,2.2-14.65,0-28.33-6.84-32.72-8.3Z"/>
    </g>
  </g>
</svg>