<?xml version="1.0" encoding="UTF-8"?>
<svg id="Layer_2" data-name="Layer 2" xmlns="http://www.w3.org/2000/svg" viewBox="0 0 318.91 87.11">
  <defs>
    <style>
      .cls-1 {
        fill: #5b78f6;
      }
    </style>
  </defs>
  <g id="Layer_1-2" data-name="Layer 1">
    <g>
      <path class="cls-1" d="M0,75.71c0-.84,0-1.69.42-2.43.74-1.27,1.16-2.64,2.01-3.91.11-.11.21-.21.21-.32.21-.21.32-.53.42-.84.84-2.43,2.32-4.54,3.27-6.86.53-1.48,1.27-2.85,2.01-4.22l1.58-2.75c1.58-2.75,3.06-5.6,4.33-8.45,1.06-2.43,2.22-4.75,3.59-7.07.63-1.06,1.27-2.11,1.69-3.38.84-2.22,1.79-4.33,2.85-6.55.63-1.27,2.64-6.02,3.06-7.5,0-.11,0-.21.11-.32.63-1.16,1.06-2.43,1.48-3.8.11-.42.84-.42,1.27-.63.42-.21.84-.42,1.27-.53.42,0,.95.11,1.27.42.42.42.74.95.95,1.48,0,.21.11.42,0,.63-.11.42-.32.84-.53,1.27-.21.63-.63,1.27-.63,1.9-.11.95-1.79,5.17-2.22,6.02-.53,1.16-1.16,2.43-1.79,3.59-.11.32,0,.53.21.63.11.11.32.11.53-.11,2.22-2.53,3.7-3.7,5.81-6.34.32-.53.63-.95,1.16-1.27,1.48-1.06,2.64-2.43,4.01-3.7.84-.74,1.58-1.58,2.64-2.11.42-.21.63-.74.84-1.06.42-.53.95-.95,1.58-1.27,1.06-.53,2.22-.74,3.27-.95.74,0,1.37.21,2.11.32.95.11,1.58.63,2.32,1.27.95,1.06,1.37,2.32,1.79,3.59.11.32.11.74.11,1.06.11,1.27.21,2.53,0,3.7,0,.53-.21.95-.32,1.37-.74,1.69-1.37,3.38-2.22,4.96-.32.74-.63,1.48-1.16,2.11s-.95,1.48-1.48,2.32c-1.06,1.79-1.16,2.43-2.64,4.01-1.69,2.43-3.8,4.54-5.91,6.55-.32.32-.53.74-.74,1.16-.21.42-.53,1.06-.21,1.06,4.01.63,7.18-1.69,10.45-3.91l.95-1.16c.84-.63,1.48-1.37,2.11-2.11.32-.32,1.06-1.37,1.27-1.58,2.01-2.32,3.06-4.01,4.65-6.33.74-.74.74-1.69,1.37-2.32.63-.74,1.06-1.58,1.48-2.22.32-.42.95-.53,1.27-.53.11,0,.63-.11.74,0,.21.11.63,0,1.06.32.42.32.53.53.53,1.58,0,.32-1.06,2.85-1.37,3.38-1.27,1.9-1.58,3.06-3.06,4.65-.95,2.01-2.01,3.38-3.8,5.38-.42.74-1.37,1.58-2.22,2.32-.32.74-1.16,1.27-1.48,1.69-.53.32-.95.53-.95.74-1.27,1.06-3.49,2.43-6.23,3.48l-4.65.95c-1.9.21-3.49.32-5.39-.32-.84-.32-1.69-.53-2.64-.53-.11,0-.21,0-.32.11-2.01.74-4.12,1.48-5.6,1.48-.63,0-1.69,0-2.32-.42-1.16-.53-1.79-1.06-2.53-1.9-.84-1.16-1.48-2.96-1.9-2.96s-1.48,2.11-2.01,2.96c-.42.32-.74.84-1.06,1.37-1.16,2.01-2.43,4.12-3.7,6.12-.42.63-.74,1.48-1.06,2.11-.42,1.06-.84,2.11-1.58,3.06-.63.95-1.16,1.9-1.58,2.96-.74,1.69-1.79,3.27-2.22,5.07-.63,1.16-1.16,2.43-1.69,3.7-.21.53-.63.95-1.27,1.06s-1.37.21-2.01.11c-.42,0-1.48-.95-1.58-1.37ZM33.16,46.46c1.06-.95,2.11-1.79,3.17-2.64,1.06-.84,1.79-2.11,2.75-3.06,1.16-1.06,1.27-1.27,2.22-2.53.74-.95,1.16-2.01,1.79-2.96.32-.53.74-1.16,1.16-1.69.53-.95,1.16-1.9,1.79-2.96.42-1.58,1.27-3.06,1.69-4.75.21-1.16.53-2.22.53-3.59l-.21-.74c0-.42-.74-.85-.95-.74-1.9.53-3.8,1.06-5.17,2.43-.21.21-.42.32-.63.42-1.48.84-2.75,2.01-3.91,3.27-.32.42-.74.84-1.16,1.16-2.11,2.22-4.12,4.54-5.39,5.7-.63.74-1.16,1.48-1.69,2.22-.63,1.06-1.48,2.01-2.32,2.96l-.95,1.37c-.21.32-2.85,4.01-2.64,4.22,1.58-1.48,3.06-1.37,4.12-.95,1.48.42,2.96,1.69,3.91,2.32.42.21.84.42,1.27.53.21.11.53.11.63,0Z"/>
      <path class="cls-1" d="M97.88,30.52c0,.21-.84,2.32-1.37,3.38-1.37,1.9-1.69,3.06-3.27,4.65-.95,1.79-1.79,3.06-3.91,5.38-.42.53-1.16,1.37-2.22,2.32-.53.74-1.37,1.27-1.69,1.69-.42.32-.95.53-.95.74-1.9,1.48-2.64,2.11-3.38,2.53-1.06.53-2.96,1.69-4.22,1.69-.42.21-.74.21-1.06.32-1.16.32-2.53.21-3.48-.21-1.27-.53-2.22-1.37-3.7-3.27-.63-1.69-.74-3.06-.53-4.22,0-.42.11-.84,0-1.27.11-.74.11-1.37.42-2.01.21-.74.63-2.32,1.27-3.7.53-1.27,1.69-3.59,1.9-4.12,1.16-2.01,2.96-4.86,6.34-9.93.63-.95,1.06-2.01,1.58-2.96.11-.11.11-.21.11-.32,0-.21-.11-.42-.32-.53h-.63c-1.37.42-1.58.85-2.96,1.06-1.16.11-1.16.42-2.43.63-.74,0-2.43.53-3.06.63l-1.06-.11c-.32.53-.63,1.06-1.06,1.79-.53,1.16-1.58,3.27-1.79,3.48-2.22,3.27-3.38,5.81-6.55,8.03-.32.21-.74.32-1.48.32-.63-.32-.95-1.58-.53-2.53l2.22-3.8c.74-1.58,2.01-3.48,2.54-5.07.53-.95.95-2.01,1.37-2.85.21-.53.53-1.06.74-1.58-.74-.95-.95-1.48-.95-1.37l-.42-1.48c-.32-1.69.11-4.86.84-6.02.63-1.16.74-1.58,1.9-2.53.53-.53,1.9-1.16,2.43-1.16h.11c.53,0,.84.11,1.16.42.42.21,1.06.42,1.16.84.32.21.74.74.95,1.27.53,1.37.63,1.69.63,2.64,0,.53.11,1.48,0,2.01-.32,1.06-.42,1.16-.74,2.32-.32.32.11.42.95.21,1.37-.42,1.79-.74,3.17-1.16,1.37-.42.42-.11,1.69-.74.53-.21,1.06-.32,1.58-.32l2.64-.32c.84.11,1.37.53,2.01.74,1.06.32,1.69.95,2.01,2.11.11.42.11.95,0,1.37-.63,2.53-1.58,4.43-3.27,7.08-.32.32-.53.74-.84,1.06-.63,1.06-2.75,4.43-3.91,6.02-1.16,2.32-2.64,5.49-3.17,6.44-.74,1.06-1.48,3.91-1.37,5.07-.21.74,0,1.9.53,2.75.11.21.63.63.84.63l.74.11c.42-.11.84,0,1.27-.21,1.06-.42,1.58-.74,2.32-1.27,1.69-1.06,1.69-1.16,2.85-2.32.32-.42.84-.74,1.16-1.16.63-.53,1.16-1.06,2.11-2.11.32-.32,1.16-1.37,1.37-1.58,2.11-2.32,3.17-4.01,4.86-6.33.63-.74.84-1.69,1.48-2.32.63-.74,1.06-1.58,1.48-2.22.21-.32.74-.53,1.27-.53.11,0,.63-.11.74,0,.21.11.63,0,1.06.32.53.42.63.74.53,1.58Z"/>
      <path class="cls-1" d="M95.98,53.43c-.32,0-.63-.11-.95-.32-1.06-.63-1.9-1.37-2.75-2.32-.21-.11-.32-.32-.42-.53-.11-.32-.21-.53-.42-.85-1.06-2.11-1.37-4.43-1.16-6.76,0-.42,0-.74.11-1.27.11-.95-.11-1.9.21-2.96l.95-4.01c.63-1.58,1.16-3.17,2.22-4.54.63-.95,1.16-2.11,1.69-3.06,1.06-2.01,2.54-3.91,4.12-5.49.32-.32.63-.63,1.06-.84,1.27-.95,2.64-2.01,3.8-3.17.53-.32,1.06-.63,1.69-.95,1.37-.53,2.85-1.06,4.43-1.16.95,0,2.01-.11,2.96.11.84.11,1.69.53,2.75.84.84.95,1.79,1.69,2.53,2.64.53.53.74,1.06.63,1.79,0,.53-.11,1.06.21,1.58l.63,1.48c.21.63.32,1.27.32,1.9v2.32c0,.32-.11.74-.21,1.06-.53,1.27-.84,2.64-1.37,4.01-.42,1.37-.95,2.64-1.69,3.91-.74,1.16-1.16,2.53-1.9,3.8-.11.32,0,.84.42,1.16.21.11.74.53,2.32.42.84-.11,1.58-.11,2.22-.63,1.69-1.06,2.85-1.79,4.01-2.96.32-.42.84-.74,1.16-1.16.84-.63,1.37-1.69,2.11-2.43.11-.32.74-1.06.95-1.58,1.37-1.9,1.79-2.75,2.43-3.7.84-1.58,2.43-1.37,3.06-.84.63.53.53,1.27-.11,3.06-.63,2.01-1.48,3.38-2.96,5.38-.84.84-2.64,3.38-4.12,4.65-1.58,1.37-1.37,1.27-3.38,2.64-.95.63-2.64,1.27-3.48,1.69-.74.32-2.43.42-3.7.42-1.69-.32-2.75-1.06-4.01-1.58-.21.11-.42.11-.63.32-.95,1.16-2.11,2.11-2.96,3.38-1.06,1.06-2.22,1.9-3.38,2.64-.21.11-.42.11-.63.32-2.96,1.69-3.49,1.69-7.5,1.69-.42,0-.95,0-1.27-.11ZM100.73,48.68c.42-.32,1.06-.42,1.79-.63.53-.21,1.06-.42,1.37-.74,1.69-1.16,3.27-2.53,4.33-4.22.32-.63.74-1.16,1.37-1.9l-.32-3.7c-.11-1.58,0-2.96.53-4.33.74-3.7,1.06-4.22,3.27-7.5.32-.32.63-.74.95-1.16.85-1.37.63-2.53,0-3.7,0-.21-.21-.32-.42-.32-.32-.21-.74-.42-1.27-.42s-1.27.11-1.9,0c-1.16,0-2.22.42-2.96.84-1.06.42-1.79,1.06-2.85,1.69-.21.11-.42.21-.53.32-1.06,1.27-2.53,2.32-3.38,3.7-1.06,1.48-1.79,3.27-3.06,4.86-.42.84-.95,1.58-1.27,2.43q-.95,2.64-1.27,5.6l-.32,1.79c-.21,1.58,0,3.17.53,4.75.11.21.11.63.21.95.53,1.06,1.16,1.69,2.22,2.01,1.06.21,1.9.21,2.96-.32Z"/>
      <path class="cls-1" d="M113.08,86.27c-.95-.63-1.48-1.48-1.69-2.53l-.32-2.85c.21-.84.32-1.9.53-2.96.42-.63.84-1.27,1.16-2.01.85-1.79,2.11-3.27,3.27-4.75.42-.42.84-.84,1.27-1.16l3.8-3.48c2.43-1.79,8.55-5.39,11.09-6.86.11-.11.21-.11.21-.21,2.01-1.48,4.01-2.96,6.23-4.33.53-.32,1.06-.84,1.37-1.48,1.58-2.64,3.17-5.28,4.43-8.03.11-.11,0-.21,0-.32-.11-.21-.32-.21-.53,0-.32.53-.74.84-1.16,1.16-1.37,1.06-2.96,1.9-4.01,3.27-.21.32-.74.53-1.06.84q-2.53,1.58-5.38,2.11c-.95.21-2.01.42-2.85.53-1.16-.11-2.11-.42-3.06-.95-.42-.32-.95-.63-1.16-1.16-.21-.21-.42-.63-.42-.95-.11-.95-.63-2.01-.63-3.06,0-1.37.42-2.85.84-4.33.21-1.37.74-2.64,1.16-3.91.42-1.37.84-2.64,1.69-3.8.21-.32.42-.74.53-1.16.53-1.16,1.06-2.32,1.69-3.38.95-2.11,2.11-4.01,3.27-6.02,1.06-1.79,2.11-3.48,3.27-5.17.74-1.06,1.48-2.01,2.32-2.96.21-.42.63-.63,1.16-.63.42-.11.95,0,1.37.11.53.21.95.53,1.16,1.06.21.42.32.95.21,1.48-.63,1.16-1.37,2.43-2.32,3.7-1.06,1.48-2.01,2.96-2.64,4.75-.11.42-.32.84-.53,1.27-.32.53-.84,1.06-1.16,1.58-.32.63-.42,1.37-.74,2.01-.63,1.16-1.37,2.32-2.11,3.48-.32.42-.53.95-.74,1.48-.11.84-.42,1.58-.74,2.32-.74,1.27-.95,2.75-1.69,4.12-.21.21-.32.63-.32.95-.42,1.27-.53,2.96-.21,3.7,0,.32.32.74.63.74,1.16-.32,2.32-.63,3.06-1.37.63-.53,1.48-1.06,2.22-1.48,1.79-1.06,3.48-2.22,4.86-3.8,1.27-1.58,2.75-2.96,4.33-4.44,2.01-1.69,5.49-5.7,7.08-7.81,1.06-1.48,2.32-2.85,3.38-4.33.63-.95,1.27-1.9,1.69-2.96,1.06-2.01,1.9-3.27,3.17-4.86.42-.42.85-.74,1.48-.84.63-.32,1.37-.21,1.9.32.74.63.95,1.69.63,2.43-.11.32-.21.63-.42.95-.42.74-.84,1.58-1.27,2.43-.95,2.01-2.01,3.8-3.17,5.7-.63.95-1.16,1.9-1.69,2.96-1.06,2.01-2.11,4.01-3.38,5.91-.21.32-.42.53-.53.84-1.48,3.27-3.59,6.12-4.86,9.4-.11.32,0,.53.21.63h.32c.21-.11.42-.11.63-.21.53-.42,1.16-.74,1.69-1.16,1.27-.95,2.43-1.48,4.01-2.75.95-.84,3.17-2.85,4.12-3.59.84-.84,1.9-1.9,2.53-2.85,1.58-2.01.84-.95,2.22-3.06.53-.84,1.16-1.48,1.58-2.43.42-.74,1.06-1.48,1.48-2.22.11-.42.42-.53.63-.84.21-.21.84-.42,1.16-.32.42-.11.63,0,1.06.11.32,0,1.27.74,1.06,1.37,0,1.16-.53,2.11-.74,2.53-.42.95-.95,1.79-1.27,2.43-.84,1.69-.95,1.9-1.69,2.75-.63,1.06-1.16,1.48-2.11,2.96-2.01,2.32-2.75,3.06-4.33,4.54-1.06.84-2.01,1.79-3.17,2.43-.21.11-1.69,1.48-4.54,3.17-.53.42-1.16.74-1.69,1.06-1.37.74-2.64,1.58-3.8,2.32-.95.74-1.9,1.37-2.85,1.9-1.16.63-2.01,1.48-2.75,2.53-.42.74-.74,1.48-1.16,2.11l-1.58,2.64c-.21.42-.53.74-.63,1.16-.63,1.9-1.69,3.48-2.85,5.17-1.79,2.75-3.48,5.6-5.38,8.24-.95,1.37-3.27,4.22-4.43,5.28-.84.84-1.79,1.69-2.96,2.22-.74.32-1.37.74-2.11,1.27-1.16,0-4.54.11-5.81.21-.95,0-1.79-.32-2.53-.84ZM124.59,78.56c.53-.63.95-1.37,1.48-2.01,2.53-3.17,5.49-7.81,7.5-11.4.53-.84.42-1.27.42-1.16-3.27,1.48-8.13,4.54-9.29,5.6-.84.84-1.58,1.69-2.53,2.43-1.37,1.16-2.53,2.64-3.59,4.01-.84,1.06-1.37,2.32-1.79,3.7-.11.63,0,1.37.21,2.01.11.42,2.85.63,3.17.42,1.79-.84,3.27-2.01,4.43-3.59Z"/>
      <path class="cls-1" d="M170.1,52.9c-.74-.21-1.37-.74-2.01-1.27-.84-.84-1.69-1.79-2.53-2.75-.53-.63-.84-1.37-.95-2.22-.11-.21-.11-.42-.11-.63-.42-1.16-.63-2.43-.53-3.7,0-1.16,0-2.22.21-3.38.21-.63.21-1.37.32-2.01.42-.84.74-1.69,1.06-2.53.74-2.01,1.9-4.54,3.06-6.23.21-.32.32-.63.42-.95l.53-.95c.84-1.16,1.79-2.32,2.75-3.48,1.16-1.58,2.53-2.85,4.33-3.8,1.69-1.27,3.59-1.9,5.49-2.75.32-.11.63-.21.95-.21l2.75-.53c1.06-.21,2.01.11,2.96.63.74.53,1.48,1.06,2.11,1.69.84.63,1.37,1.58,1.48,2.64.11.63.21,1.37.21,2.11-.11.95-.42,1.79-.74,2.75l-.63,1.58c-.21.53-.74,1.06-.95,1.58-.21.42-1.06,1.48-1.27,1.79l-.53.95c-.63,1.06-1.58,1.9-2.32,2.96-.11.11-.32.21-.53.32-.53.42-1.16.84-1.58,1.27-1.58,1.48-3.38,2.64-6.23,3.7l-4.44,1.06c-.95.11-3.48.32-4.22.32,0,.11,0,.63-.11.74-.21,2.22,0,3.17.95,5.17.21.42.53.84.95,1.06q2.11,1.06,4.54,1.16c.95,0,1.79,0,2.64-.42.42-.21.95-.21,1.37-.32.32-.11,1.48-.74,1.79-.84,1.58-.95,4.75-2.75,5.91-3.8.32-.42.74-.74,1.06-1.16.74-.53,1.37-1.27,2.01-1.9.32-.32,1.06-1.27,1.27-1.48,2.01-2.11,3.06-3.7,4.65-5.81.63-.63.84-1.58,1.37-2.11.63-.74,1.06-1.48,1.48-2.01.32-.42.84-.53,1.16-.53.11,0,.53-.11.63,0,.21.11.63,0,.95.32.42.21.63.42.42,1.37,0,.32-1.06,2.64-1.37,3.17-1.27,1.69-1.58,2.85-3.06,4.22-1.06,1.9-2.01,3.17-3.7,4.96-.53.74-1.37,1.48-2.11,2.22-.53.63-1.27,1.16-1.58,1.48-.53.32-3.27,2.43-4.12,2.96-.53.42-1.58,1.16-2.22,1.48-2.85,1.69-6.02,2.53-9.4,2.75-1.79.11-2.85-.21-4.54-.63ZM176.96,34.53c2.01-.95,5.49-4.33,6.76-5.6,1.06-1.27,2.01-2.53,2.64-4.01.53-1.06.74-2.11.63-3.27,0-.95-1.06-1.69-1.9-1.48-.74.21-1.58.42-2.32.74-1.69.63-3.27,1.48-4.44,2.96-.32.32-.74.63-1.06.84-1.69,1.58-3.38,3.06-4.75,6.02-.32.74-.74,1.37-1.16,2.11-.21.42-.32.84-.42,1.16-.21.63-.42,1.48-.32,1.69,2.96,0,4.65-.42,6.34-1.16Z"/>
      <path class="cls-1" d="M203.26,53.32l-3.17-.95c-1.27-.74-2.01-1.58-3.06-2.22-.84-1.16-1.69-2.11-2.01-3.48-.11-.63-.11-1.27-.21-2.01-.53-1.9-.42-4.12.11-6.44.11-.63.32-1.27.53-2.01l.42-1.27c.63-1.16,1.16-2.43,1.58-3.8.32-.63.63-1.37,1.27-2.32.32-.42.63-.74.74-1.16.84-1.58,4.54-5.81,4.54-5.49,2.32-2.64,5.49-4.54,10.45-6.23.53-.21.95-.21,1.37-.32l2.75-.32c1.48-.21,2.64.21,3.7,1.27.32.32.53.74.63,1.27,0,.21.11.42.11.63-.32,1.06.11,2.01.32,3.06-.21.95-.42,2.01-.74,2.96-.53,2.11-1.27,3.8-2.53,5.6-.42.74-.95,1.27-2.01,2.22-.63.42-1.69.42-2.32,0-.42-.42-.74-.84-.95-1.37-.11-.21-.11-.53,0-.63.53-1.16,1.16-2.22,1.79-3.27l.95-1.9c.74-1.37,1.06-2.96.84-4.54,0-.42-.42-.95-.84-1.06-.53-.11-1.16-.11-1.69,0-.63.11-.95.21-1.27.42-1.9.84-3.8,2.11-5.7,3.8-.42.42-.74.84-1.27,1.16-1.27,1.06-2.32,2.32-3.48,4.12-1.06,1.48-1.79,2.96-2.43,4.54-.32.84-.74,1.69-1.06,2.53-.84,1.9-1.27,3.91-1.27,6.65.11,1.79.95,3.7,2.01,4.65.53.42.74.63,1.06.74.84.21,1.58.53,2.32.63.21.11.42.11,1.06.11,1.16-.21,2.32-.32,3.38-.53,1.06-.21,2.01-.53,2.96-.95,1.58-.95,4.75-2.75,5.91-3.8.32-.42.74-.74,1.06-1.16.74-.53,1.37-1.27,2.01-1.9.32-.32,1.06-1.27,1.27-1.48,2.01-2.11,3.06-3.7,4.65-5.81.63-.63.84-1.58,1.37-2.11.63-.74,1.06-1.48,1.48-2.01.21-.32.74-.53,1.16-.53.11,0,.53-.11.63,0,.21.11.63,0,.95.32.53.21.63.53.42,1.37,0,.32-1.06,2.64-1.37,3.17-1.27,1.69-1.58,2.85-3.06,4.22-1.06,1.9-2.01,3.17-3.7,4.96-.53.74-1.37,1.48-2.11,2.22-.53.63-1.27,1.16-1.58,1.48-.53.32-.95.53-.95.74-1.16.95-5.49,3.59-6.44,4.22-1.16.21-2.22.95-3.48,1.16-1.48.32-2.85.74-4.33.95-.74.21-1.27.11-2.75-.11Z"/>
      <path class="cls-1" d="M252.99,30.52c0,.32-1.06,2.85-1.37,3.38-1.27,1.9-1.58,3.06-3.06,4.65-1.06,2.01-2.01,3.38-3.7,5.38-.53.74-1.37,1.58-2.11,2.32-.53.74-1.27,1.27-1.58,1.69-.53.32-.95.53-.95.74-1.16,1.06-2.11,1.9-3.06,2.53-.84.63-2.53,1.48-4.01,1.9-1.06.21-1.9.32-3.06.11-.63-.21-1.37-.53-2.01-.84-.84-.53-1.48-1.27-2.22-2.01-.42-.74-.74-1.58-1.16-2.43-.11-.95-.11-1.79-.21-2.85.11-1.16.32-2.75.74-4.54l.53-1.37c.84-3.8,2.43-6.86,4.01-10.35l.63-1.48,2.32-5.38h-2.85c-2.32,0-3.06,0-3.7-.74-.85-1.27,0-2.64.32-2.96.42-.63,1.06-.95,1.69-.95l6.65.11c.63-1.37,1.48-2.64,2.22-3.91-3.7,6.76,1.27-2.32,3.38-5.91,1.06-1.9,2.32-3.7,3.48-5.49.74-1.16,1.69-2.11,2.75-2.11,1.69,0,2.53,1.79,1.27,4.22-.84,1.9-5.38,9.71-5.38,9.61l-1.79,3.38h.42c2.43-.11,4.43.21,6.86.11,1.58,0,2.32,1.37,1.8,2.43-.85,1.8-1.8,2.22-4.44,2.22h-7.29c-1.79,3.27-3.59,6.44-3.8,6.86-.74,1.58-.42.74-1.06,2.32l-1.9,4.75c-.42,1.06-.63,2.22-.95,3.27-.42,1.16-.74,2.43-1.06,3.59-.32,1.48-.42,2.22-.21,3.7,0,.53.21,1.58.95,2.01.32.32,1.06.53,1.58.53,1.16,0,2.64-1.16,2.53-1.06,1.58-1.06,2.64-1.9,3.8-3.06.32-.42.74-.74,1.06-1.16.74-.63,1.37-1.37,2.01-2.11.32-.32,1.06-1.37,1.27-1.58,2.01-2.32,3.06-4.01,4.65-6.33.63-.74.84-1.69,1.37-2.32.63-.74,1.06-1.58,1.48-2.22.32-.42.84-.53,1.16-.53.11,0,.53-.11.63,0,.21.11.63,0,.95.32.42.32.63.53.42,1.58Z"/>
      <path class="cls-1" d="M251.09,53.43c-.32,0-.63-.11-.95-.32-1.06-.63-1.9-1.37-2.75-2.32-.21-.11-.32-.32-.42-.53-.11-.32-.21-.53-.42-.85-1.06-2.11-1.37-4.43-1.16-6.76,0-.42,0-.74.11-1.27.11-.95-.11-1.9.21-2.96l.95-4.01c.63-1.58,1.16-3.17,2.22-4.54.63-.95,1.16-2.11,1.69-3.06,1.06-2.01,2.53-3.91,4.12-5.49.32-.32.63-.63,1.06-.84,1.27-.95,2.64-2.01,3.8-3.17.53-.32,1.06-.63,1.69-.95,1.37-.53,2.85-1.06,4.43-1.16.95,0,2.01-.11,2.96.11.84.11,1.69.53,2.75.84.84.95,1.79,1.69,2.53,2.64.53.53.74,1.06.63,1.79,0,.53-.11,1.06.21,1.58l.63,1.48c.21.63.32,1.27.32,1.9v2.32c0,.32-.11.74-.21,1.06-.53,1.27-.84,2.64-1.37,4.01-.42,1.37-.95,2.64-1.69,3.91-.74,1.16-1.16,2.53-1.9,3.8-.11.32,0,.84.42,1.16.21.11.74.53,2.32.42.84-.11,1.58-.11,2.22-.63,1.69-1.06,2.85-1.79,4.01-2.96.32-.42.84-.74,1.16-1.16.84-.63,1.37-1.69,2.11-2.43.11-.32.74-1.06.95-1.58,1.37-1.9,1.79-2.75,2.43-3.7.84-1.58,2.43-1.37,3.06-.84.63.53.53,1.27-.11,3.06-.63,2.01-1.48,3.38-2.96,5.38-.84.84-2.64,3.38-4.12,4.65-1.58,1.37-1.37,1.27-3.38,2.64-.95.63-2.64,1.27-3.48,1.69-.74.32-2.43.42-3.7.42-1.69-.32-2.75-1.06-4.01-1.58-.21.11-.42.11-.63.32-.95,1.16-2.11,2.11-2.96,3.38-1.06,1.06-2.22,1.9-3.38,2.64-.21.11-.42.11-.63.32-2.96,1.69-3.48,1.69-7.5,1.69-.42,0-.95,0-1.27-.11ZM255.84,48.68c.42-.32,1.06-.42,1.79-.63.53-.21,1.06-.42,1.37-.74,1.69-1.16,3.27-2.53,4.33-4.22.32-.63.74-1.16,1.37-1.9l-.32-3.7c-.11-1.58,0-2.96.53-4.33.74-3.7,1.06-4.22,3.27-7.5.32-.32.63-.74.95-1.16.84-1.37.63-2.53,0-3.7,0-.21-.21-.32-.42-.32-.32-.21-.74-.42-1.27-.42s-1.27.11-1.9,0c-1.16,0-2.22.42-2.96.84-1.06.42-1.79,1.06-2.85,1.69-.21.11-.42.21-.53.32-1.06,1.27-2.53,2.32-3.38,3.7-1.06,1.48-1.79,3.27-3.06,4.86-.42.84-.95,1.58-1.27,2.43q-.95,2.64-1.27,5.6l-.32,1.79c-.21,1.58,0,3.17.53,4.75.11.21.11.63.21.95.53,1.06,1.16,1.69,2.22,2.01,1.06.21,1.9.21,2.96-.32Z"/>
      <path class="cls-1" d="M318.88,30.52c0,.32-1.16,2.85-1.48,3.38-1.37,1.9-1.79,3.06-3.38,4.65-1.06,2.01-2.11,3.38-4.01,5.38-.53.74-1.48,1.58-2.32,2.32-.42.74-1.27,1.27-1.58,1.69-.53.32-1.06.53-1.06.74-1.27,1.06-2.32,1.9-3.27,2.53-.95.63-3.17,1.27-4.01,1.69-1.69.53-1.79.53-3.7.63-2.64-.21-3.7-1.27-4.01-1.37-.84.63-2.96,1.27-5.81,1.27-.74,0-2.11-.42-2.64-.95-1.06-.74-1.27-1.06-2.22-1.79-.53-.53-1.27-2.01-1.16-2.96-.32-.53-.21-.95-.32-1.79.21-.42,0-1.9.42-2.11.32-.42.53-.74,1.06-1.27.95-.84,1.16-1.37,2.22-1.37.53-.21.53.11,1.06.21,1.06.63,2.43,2.75,2.96,3.59.63.53,2.75,1.9,4.01,2.32,1.06-.21,2.22-1.16,2.75-1.79,1.27-1.06,2.11-2.75,2.75-4.12.21-.42.63-.95.74-1.48.53-1.69.53-2.43.42-4.33l-.21-2.32c-.11-.95-.32-1.16-.53-2.64-.21-1.06-.32-2.11-.74-3.17,0-.63-.32-1.06-.32-1.58.11-.74-.11-1.48-.32-2.22-.32.42-.74.95-.95,1.58-.32.53-2.11,4.01-2.43,4.65-.53,1.06-2.53,3.27-3.17,4.44-.84,1.37-2.43,2.01-3.17,1.16l-.95-1.16c-.32-.32.32-1.37,2.11-4.44.95-1.58,1.16-1.58,2.11-3.06.63-1.37,2.01-3.17,2.43-3.91.84-1.69,1.79-3.38,2.53-4.65-.32-1.37-.63-2.64.11-5.07.63-1.69,2.75-4.01,4.22-4.54.53-.32,1.9-.42,2.64-.32.32.11.63,0,1.06.32.32.11.84.21,1.06.63.32.42.63.74.53,1.16.32.21.53.53.42.95.21,1.16,0,2.01-.32,3.17-.11.53-.21.84-.63,1.48-.74.95-1.06,1.69-1.79,2.53l-1.69,2.11c.53,1.37.42,1.9.84,3.49.42,2.01.95,4.12,1.16,6.02.42,1.27.63,2.64.74,3.91,0,.84.21.74,0,1.69.42.95.11,1.9-.21,3.06,0,1.27-.11,2.43-.95,3.48-.21,1.58-1.48,2.85-2.53,4.12-.32.53-2.11,1.9-1.69,2.01.74,0,1.27-.11,2.43-.53.84-.32,3.38-1.9,4.54-3.06.32-.42.84-.74,1.16-1.16.84-.63,1.48-1.37,2.22-2.11.32-.32,1.16-1.37,1.37-1.58,2.11-2.32,3.27-4.01,4.96-6.33.74-.74.84-1.69,1.48-2.32.63-.74,1.16-1.58,1.58-2.22.32-.42.95-.53,1.27-.53.11,0,.63-.11.74,0,.21.11.63,0,1.06.32.42.32.53.53.42,1.58Z"/>
    </g>
  </g>
</svg>